<?xml version="1.0" encoding="utf-8"?>
<!-- Generator: Adobe Illustrator 22.0.1, SVG Export Plug-In . SVG Version: 6.00 Build 0)  -->
<svg version="1.1" id="Content" xmlns="http://www.w3.org/2000/svg" xmlns:xlink="http://www.w3.org/1999/xlink" x="0px" y="0px"
	 viewBox="0 0 133.3 7.1" style="enable-background:new 0 0 133.3 7.1;" xml:space="preserve">
<style type="text/css">
	.st0{fill:#B40766;}
</style>
<g>
	<path class="st0" d="M89.4,1.5c-0.3,0.5-0.5,0.7-0.6,0.9c0,0.1,0,0.2,0,0.4c1.2,0,2.5,0,3.7-0.1c1.3-0.1,2.6-0.4,3.9-0.4
		c0.7,0,1.3,0.4,2,0.4c2,0,4.1-0.2,6.1-0.2c2.4,0,4.8,0,7.1,0.1c0.7,0,1.5-0.8,2.1,0.6c0.1,0.2,0.5,0.1,0.7-0.1
		c1.4-1.1,3-0.8,4.5-0.8c4.4,0.1,8.8,0.2,13.1,0.3c0.9,0,1.2,0.6,1.2,2.8c0,1.2-0.4,1.8-1.2,1.7c-3.7-0.3-7.3-0.6-11-0.8
		c-1.9-0.1-3.7,0.1-5.6,0.1c-3-0.1-6-0.3-9-0.4c-1.9-0.1-3.7,0-5.6,0c-1.5,0-2.9-0.1-4.4-0.1c-2.7-0.1-5.4-0.3-8.1-0.4
		c-2.3-0.1-4.5-0.1-6.8-0.2c-5.2-0.1-10.4-0.2-15.6-0.2c-1.8,0-3.6,0.4-5.4,0.4c-2.7,0-5.5-0.2-8.2-0.3c-6.5-0.1-12.9-0.1-19.3-0.1
		c-2.7,0-5.5-0.1-8.2,0.1C21,5.4,17.1,5.8,13.1,6c-3,0.1-6.1,0.1-9.1,0C1.3,6,0.6,3.9,0,0.1c1.1,0,2.2,0,3.2,0c1,0,2.1-0.3,3,0.2
		c4.3,1.9,8.7,0.5,13,0.8c4.4,0.2,8.7-0.1,13.1-0.1c4.2,0,8.4,0.1,12.7,0.2c5.3,0.1,10.6,0.2,15.8,0.2c4.4,0,8.8,0,13.2,0.1
		c1.3,0,2.6,0.4,3.9,0.5c0.2,0,0.5-0.1,0.8-0.2c0.2-0.1,0.4-0.4,0.5-0.3c1.7,1.4,3.4-0.3,5.1,0C85.9,1.8,87.5,1.5,89.4,1.5"/>
</g>
</svg>
