<?xml version="1.0" encoding="utf-8"?>
<!-- Generator: Adobe Illustrator 22.0.1, SVG Export Plug-In . SVG Version: 6.00 Build 0)  -->
<svg version="1.1" id="Layer_1" xmlns="http://www.w3.org/2000/svg" xmlns:xlink="http://www.w3.org/1999/xlink" x="0px" y="0px"
	 viewBox="0 0 247 178.4" style="enable-background:new 0 0 247 178.4;" xml:space="preserve">
<style type="text/css">
	.st0{fill:#FFFFFF;}
</style>
<g>
	<polygon class="st0" points="114.2,132.1 114.2,126.6 97.3,126.6 97.3,172 97.3,177.5 103.1,177.5 114.2,177.5 114.2,172 
		103.1,172 103.1,149.1 114.2,149.1 114.2,143.5 103.1,143.5 103.1,132.1 	"/>
	<path class="st0" d="M52.4,129.5c-2.6-3.3-7.1-3.4-7.3-3.4h-0.2c-0.7,0-2.9,0.1-5.2,1.4c-3.9,2.2-4.2,7.8-4.2,8v42.1h5.7v-28.4h7.3
		v28.4h5.6v-42.2C54.1,131.6,53.3,130.6,52.4,129.5 M48.5,143.7h-7.4l0-9.6c0-0.1,0.2-2.4,3.6-2.4c3.3,0,3.7,2.2,3.7,2.4L48.5,143.7
		z"/>
	<polygon class="st0" points="123.9,177.6 123.9,126.7 140.9,126.7 140.9,132.2 129.7,132.2 129.7,143.7 140.9,143.7 140.9,149.2 
		129.7,149.2 129.7,177.6 	"/>
	<path class="st0" d="M198.1,126.2c-4.6,0-9,1.2-12.9,3.5c-3.9-2.3-8.4-3.5-13-3.5c-14.3,0-25.9,11.6-25.9,25.9
		c0,12.7,9.2,23.3,21.3,25.5c1.5,0.3,3.1,0.4,4.6,0.4c1.5,0,3.1-0.1,4.5-0.4c2.9-0.5,5.8-1.5,8.4-3.1c2.6,1.5,5.4,2.6,8.4,3.1
		c1.5,0.3,3,0.4,4.5,0.4c1.6,0,3.1-0.1,4.6-0.4c12.1-2.2,21.3-12.8,21.3-25.5C224,137.8,212.4,126.2,198.1,126.2 M172.2,172.7
		c-11.3,0-20.5-9.2-20.5-20.5c0-11.3,9.2-20.5,20.5-20.5c2.9,0,5.6,0.6,8.2,1.7c-5.2,4.9-8.2,11.7-8.2,18.9c0,7.2,3,14,8.2,18.9
		C177.8,172.1,175.1,172.7,172.2,172.7 M185.2,168.1c-4.8-3.9-7.6-9.7-7.6-15.9c0-6.2,2.8-12,7.6-15.9c4.8,3.9,7.6,9.7,7.6,15.9
		C192.8,158.4,190,164.1,185.2,168.1 M198.1,172.7c-2.8,0-5.6-0.6-8.1-1.7c5.2-4.9,8.1-11.7,8.1-18.9c0-7.2-2.9-14-8.1-18.8
		c2.5-1.1,5.3-1.7,8.1-1.7c11.3,0,20.5,9.2,20.5,20.5C218.7,163.4,209.4,172.7,198.1,172.7"/>
	<polygon class="st0" points="233.3,177.6 233.3,132.4 225.9,132.4 225.9,126.7 247,126.7 247,132.3 239.3,132.3 239.3,177.6 	"/>
	<path class="st0" d="M84.1,177.6h5.8l-11.6-29c4.4-1.5,7.5-5.7,7.5-10.6c0-6.2-5-11.2-11.2-11.2h-9.2v50.9H71v-28.4l1.5,0
		L84.1,177.6z M70.9,132.3h3.5c3.1,0,5.7,2.5,5.7,5.7s-2.5,5.7-5.7,5.7l-3.5,0V132.3z"/>
	<path class="st0" d="M17.8,145.2c1.6-1.9,2.6-4.4,2.6-7.1c0-6.2-5-11.2-11.2-11.2H0v50.8l11,0c9.4,0,16.9-7.6,16.9-16.9
		C27.9,153.7,23.8,147.8,17.8,145.2 M5.7,132.3h3.5c3.1,0,5.7,2.5,5.7,5.7c0,3.1-2.5,5.7-5.6,5.7H5.7V132.3z M11,172H4.9v-22.8
		l4.3,0c0,0,0.1,0,0.1,0H11c6.3,0,11.4,5.1,11.4,11.4C22.3,166.9,17.2,172,11,172"/>
	<path class="st0" d="M159.2,44.8c1.6,0,2.8,2,2.8,3.1c0,1.9-1.6,3.3-3.1,3.3c-2.3,0-2.6-1.1-2.6-2.5
		C156.2,47.3,156.8,44.8,159.2,44.8"/>
	<path class="st0" d="M126.6,14.2h1.9c3,0,5.7,5.2,7.6,6.4c3.7,2.3,8.5,3.6,10.2,8.3c1.4,3.8,2.1,8.2,3.7,11.9
		c1.7,3.9,4.5,6.6,4.5,9.9c0,6.1-4.3,9.7-10.7,13.3c-13.9,7.7-26.1,33.7-40.8,33.7c-5.7,0-8.3-5.1-8.3-8.9
		c0-9.2,13.8-15.3,19.7-17.3c1.5-0.5,3.1-1.2,3.7-1.7c1.9-1.5,2.4-3.7,3.2-5.2c0.5-1,0-2.7,0.6-3.7c0.7-1.2,2.3-1.4,2.3-2.7
		c0-0.6-1.2-3.1-1.2-3.7c0-2.2,2.4-0.2,2.4-3.4c0-4.7-7.5-11.3-8.2-19.4c-0.2-2.2-0.4-3.6,0-5.8C118.4,20.3,123.1,14.2,126.6,14.2"
		/>
	<path class="st0" d="M150.2,16.7c3.4,0,5,1.4,5,4.1c0,3.2-2.8,5.7-5.5,5.7c-2.3,0-5.8-4.5-5.8-5.9C143.9,18,148.4,16.7,150.2,16.7"
		/>
	<path class="st0" d="M140.3,0c3.7,0,9.6,3.3,9.6,7.1c0,4.8-7.5,8.9-10.7,8.9c-4,0-8.5-3.2-8.5-7.3C130.7,4,135.8,0,140.3,0"/>
	<path class="st0" d="M155.4,26.3c3.4,0,5,4.2,5,6.1c0,1.9-1.6,2.2-3.1,2.2c-4.3,0-5.8-1.5-5.8-5.1
		C151.6,27.4,153.7,26.3,155.4,26.3"/>
	<path class="st0" d="M159.6,35.4c3.2,0,3,3.5,3,4.6c0,0.5-0.3,2.5-1.5,3.2c-1.1,0.6-2.1,0.5-3.2,0c-1.5-0.7-2-2.3-2-3.7
		C155.9,37.4,156.9,35.4,159.6,35.4"/>
	<path class="st0" d="M113.7,94.7c0.7,0,1.3,0.6,1.3,1.3c0,0.7-0.6,1.3-1.3,1.3c-0.7,0-1.3-0.6-1.3-1.3
		C112.4,95.3,112.9,94.7,113.7,94.7L113.7,94.7z M113.7,94.9c-0.6,0-1,0.5-1,1.1c0,0.6,0.5,1.1,1.1,1.1c0.6,0,1-0.5,1-1.1
		C114.7,95.4,114.2,94.9,113.7,94.9L113.7,94.9z M113.4,96.8h-0.2v-1.5c0.1,0,0.2,0,0.4,0c0.2,0,0.4,0,0.5,0.1
		c0.1,0.1,0.1,0.2,0.1,0.3c0,0.2-0.1,0.3-0.3,0.4l0,0c0.1,0,0.2,0.1,0.2,0.4c0,0.2,0.1,0.3,0.1,0.4H114c0,0-0.1-0.2-0.1-0.4
		c0-0.2-0.1-0.3-0.3-0.3h-0.2V96.8z M113.4,96h0.2c0.2,0,0.4-0.1,0.4-0.2c0-0.1-0.1-0.3-0.4-0.3c-0.1,0-0.1,0-0.2,0V96z"/>
	<path class="st0" d="M241.9,175.8c0.7,0,1.3,0.6,1.3,1.3c0,0.7-0.6,1.3-1.3,1.3c-0.7,0-1.3-0.6-1.3-1.3
		C240.6,176.4,241.1,175.8,241.9,175.8L241.9,175.8z M241.9,176c-0.6,0-1,0.5-1,1.1c0,0.6,0.5,1.1,1.1,1.1c0.6,0,1-0.5,1-1.1
		C242.9,176.5,242.4,176,241.9,176L241.9,176z M241.6,177.9h-0.2v-1.5c0.1,0,0.2,0,0.4,0c0.2,0,0.4,0,0.5,0.1
		c0.1,0.1,0.1,0.2,0.1,0.3c0,0.2-0.1,0.3-0.3,0.4l0,0c0.1,0,0.2,0.1,0.2,0.4c0,0.2,0.1,0.3,0.1,0.4h-0.2c0,0-0.1-0.2-0.1-0.4
		c0-0.2-0.1-0.3-0.3-0.3h-0.2V177.9z M241.6,177.1h0.2c0.2,0,0.4-0.1,0.4-0.2c0-0.1-0.1-0.3-0.4-0.3c-0.1,0-0.1,0-0.2,0V177.1z"/>
</g>
</svg>
