<?xml version="1.0" encoding="utf-8"?>
<!-- Generator: Adobe Illustrator 22.0.1, SVG Export Plug-In . SVG Version: 6.00 Build 0)  -->
<svg version="1.1" id="Layer_1" xmlns="http://www.w3.org/2000/svg" xmlns:xlink="http://www.w3.org/1999/xlink" x="0px" y="0px"
	 viewBox="0 0 20.6 30.9" style="enable-background:new 0 0 20.6 30.9;" xml:space="preserve">
<style type="text/css">
	.st0{fill:#3F2B4F;}
</style>
<path class="st0" d="M20.6,10.3c0,1.5-0.2,2.7-0.7,3.6l-7.3,15.5c-0.2,0.4-0.5,0.8-1,1c-0.4,0.3-0.9,0.4-1.4,0.4
	c-0.5,0-0.9-0.1-1.4-0.4c-0.4-0.3-0.7-0.6-0.9-1L0.7,13.9C0.2,12.9,0,11.7,0,10.3C0,7.4,1,5,3,3c2-2,4.4-3,7.3-3s5.3,1,7.3,3
	C19.6,5,20.6,7.4,20.6,10.3z"/>
</svg>
