<?xml version="1.0" encoding="utf-8"?>
<!-- Generator: Adobe Illustrator 22.0.1, SVG Export Plug-In . SVG Version: 6.00 Build 0)  -->
<svg version="1.1" id="Isolation_Mode" xmlns="http://www.w3.org/2000/svg" xmlns:xlink="http://www.w3.org/1999/xlink" x="0px"
	 y="0px" viewBox="0 0 100 100" style="enable-background:new 0 0 100 100;" xml:space="preserve">
<style type="text/css">
	.st0{fill:#FFD24D;}
	.st1{fill:#FFFFFF;}
</style>
<g>
	<path class="st0" d="M92.1,50.6c3.7,0,4.7-0.7,4.3-3.1c-0.9-4.9-2.6-9.6-4.8-14c-0.3-0.8-0.8-1.6-1.1-2.3l-1.1-2.3
		c-0.8-1.5-1.7-3-2.7-4.4c-0.9-1.1-1.8-2.3-2.8-3.4c-1.1-1-2.1-2.1-3.3-3.1c-0.4,1.1-0.7,1.8-0.9,2.5c-0.4,0.1-0.7,0.2-0.7,0.1
		c-0.5-0.9-1.3-1.5-2.1-2c-0.4-0.3-0.9-0.5-1.3-0.8c-0.5-0.2-0.9-0.4-1.3-0.7c-0.9-0.5-1.6-1.1-2.1-2.1c-0.5-0.9-0.8-2.1-0.8-4
		c0-0.3-0.4-0.5-0.6-0.7c-1.2-0.8-2.4-1.5-3.6-2.3c-1.2-0.7-2.6-1.3-3.9-1.8c-0.8-0.4-1.8-0.5-2.7-0.7c-0.9-0.1-1.8-0.3-2.7-0.6
		l-2.7-0.7c-0.9-0.2-1.8-0.5-2.7-0.6c-0.9-0.1-1.8-0.3-2.8-0.4c-0.5-0.1-0.9-0.1-1.4-0.2l-1.4,0c-1.3,0-2.6,0.1-3.9,0.3
		c-1.3,0.3-2.6,0.6-3.8,0.9c0.1,0.3,0.1,0.7,0.2,1.1l2.6,0.6c-1.3,0.7-2.7,1.1-4,1.7c-1.3,0.5-2.7,0.9-4,1.5c-1.3,0.5-2.7,1-4,1.6
		c-1.3,0.6-2.6,1.1-3.9,1.9c-0.6,0.4-1.3,0.7-1.9,1.1c-0.6,0.4-1.2,0.9-1.8,1.3c-0.6,0.4-1.2,0.9-1.8,1.2c-0.6,0.4-1.2,0.8-1.9,1.2
		c-0.6,0.4-1.3,0.7-2,1c-0.7,0.3-1.4,0.6-2.1,0.9c-0.7,0.3-1.5,0.6-2.2,0.9c-0.7,0.3-1.4,0.7-2.1,1.1c0.2,0.2,0.5,0.5,0.7,0.7
		c0.8-0.6,1.6-1.1,3.2-1.9c0,1.4,0.3,2.2,0,2.6c-1,1.5-2.1,2.9-3,4.5c-0.5,0.8-0.9,1.6-1.4,2.3l-1.2,2.4C8,33.6,7.5,34.7,7,35.9
		l-0.8,1.7c-0.2,0.6-0.4,1.2-0.6,1.8c-0.4,1.2-0.7,2.4-0.8,3.7c0,0.6,0,1.3,0,1.9c0,0.6,0.1,1.3,0.3,1.9c0.6,1.9,0.7,3.8,1,5.7
		c0.1,0.9,0.1,1.9,0.1,2.9c0.1,0.9,0.1,1.9,0.1,2.9c0,0.9,0.1,1.7,0.2,2.6c0.1,0.9,0.2,1.7,0.4,2.6c0.2,0.8,0.5,1.7,0.7,2.5
		c0.3,0.8,0.5,1.7,0.9,2.5c0.4,0.8,0.8,1.6,1.1,2.4c0.4,0.8,0.9,1.5,1.4,2.2c0.5,0.7,0.9,1.5,1.5,2.1l1.7,2l0.8,0.8l0.9,0.8l1.7,1.5
		c0.5,0.5,1.2,0.9,1.8,1.4c0.6,0.5,1.2,0.9,1.7,1.4c1.1,0.9,2.2,1.9,3.1,3.2c1,1.2,1.8,2.6,2.5,4.4c0.1,0.3,0.5,0.3,0.8,0.5
		c4.4,2.5,9.3,4.2,14.3,5c5,0.8,10.2,0.9,15.3,0c5.1-0.9,10-2.6,14.5-5.1l2.6-1.6c0.8-0.6,1.7-1.2,2.5-1.8l1.2-0.9
		c0.4-0.3,0.8-0.7,1.2-1l2.3-2c1.1-1.1,2.2-2.1,3.4-3.2c1-1.1,2.1-2.3,3.2-3.5c1-1.9,2.1-3.8,2.9-5.8l0.6-1.5l0.3-0.7l0.2-0.8
		l0.9-3.1c1-4.2,1.7-8.4,1.5-12.6c-2-0.4-4.1-0.7-6.2-1c0-0.3,0-0.6,0-0.9c0,0,0,0,0,0c0.4,0,0.8,0,1.2,0
		C90.3,50.6,91.2,50.6,92.1,50.6z M87.4,33.3c-0.4-1.3-0.8-2.6-1.3-3.9l1.4-0.7c0.6,1.3,1,2.6,1.4,3.9
		C88.4,32.9,87.9,33.1,87.4,33.3z"/>
	<path class="st0" d="M3.1,64.8c2.2,5.8,5.5,11.2,9.6,15.6l0.6-0.5C9.2,75.5,6,70.3,3.8,64.6L3.1,64.8z"/>
	<path class="st0" d="M37,6.4l-0.3-1c-5.3,1-10.4,3-15.1,5.8l0.8,1.2C26.9,9.6,31.9,7.6,37,6.4z"/>
	<path class="st0" d="M1.4,44l1.4,0.2c0.3-4.3,1.4-8.5,2.9-12.6C2.5,35,1.8,39.7,1.4,44z"/>
</g>
<path class="st1" d="M67.3,51.3L40.6,66.1c-0.3,0.2-0.6,0.2-0.8,0.1c-0.2-0.1-0.3-0.4-0.3-0.7V35.9c0-0.3,0.1-0.6,0.3-0.7
	c0.2-0.1,0.5-0.1,0.8,0.1l26.7,14.8c0.3,0.2,0.5,0.4,0.5,0.6C67.8,50.9,67.6,51.1,67.3,51.3z"/>
</svg>
