<?xml version="1.0" encoding="utf-8"?>
<!-- Generator: Adobe Illustrator 22.0.1, SVG Export Plug-In . SVG Version: 6.00 Build 0)  -->
<svg version="1.1" id="Main_Color" xmlns="http://www.w3.org/2000/svg" xmlns:xlink="http://www.w3.org/1999/xlink" x="0px" y="0px"
	 viewBox="0 0 52.7 45.9" style="enable-background:new 0 0 52.7 45.9;" xml:space="preserve">
<style type="text/css">
	.st0{fill:#FFFFFF;}
	.st1{fill:#FFD24D;}
</style>
<g>
	<g>
		<path class="st0" d="M2.9,37.1c-1.5,0-2.2-0.2-2.6-0.5C0.1,36.3,0,36,0,35.7c0-0.9,0.3-3.3,0.3-3.4c0.1-0.5,0.5-0.8,1-0.8
			c0.5,0.1,0.8,0.5,0.8,1c0,0-0.2,1.7-0.3,2.8C3,35.4,6.1,35.2,7.9,35c0.9-0.1,1.7-0.1,2.3-0.2c0.6,0,1.1-0.2,1.3-0.5
			c0.5-0.6,0.4-1.7,0.3-2.2c0-0.1,0-0.2,0-0.3c-0.2-3.2-0.7-14.8-1-17.4c-0.6-0.1-2-0.1-4.6-0.1c-1.9,0-3.6,0.1-4.4,0.2
			c-0.2,1.7,0.1,8,0.3,11.5c0.1,1.3,0.1,2.5,0.2,3.4c0,0.5-0.4,0.9-0.8,0.9c-0.5,0-0.9-0.4-0.9-0.8c0-0.9-0.1-2-0.2-3.4
			c-0.1-2.5-0.3-5.6-0.4-8.1c-0.1-3.9,0-5,1-5.2c0.6-0.1,3.6-0.3,5.6-0.3c1,0,2.4,0,3.5,0c1.5,0.1,2.2,0.2,2.4,0.8
			c0.3,0.7,1,15.4,1.1,18.3c0,0,0,0.1,0,0.2c0.1,0.7,0.3,2.3-0.8,3.5c-0.6,0.7-1.5,1.1-2.6,1.1c-0.7,0-1.5,0.1-2.3,0.2
			C5.7,37,4.1,37.1,2.9,37.1z"/>
	</g>
	<g>
		<path class="st1" d="M3.7,35.5c-1.5,0-2.2-0.2-2.6-0.5c-0.2-0.2-0.4-0.5-0.3-0.8c0-0.9,0.3-3.3,0.3-3.4c0.1-0.5,0.5-0.8,1-0.8
			c0.5,0.1,0.8,0.5,0.8,1c0,0-0.2,1.7-0.3,2.8c1.2,0.1,4.3-0.1,6.1-0.2c0.9-0.1,1.7-0.1,2.3-0.2c0.6,0,1.1-0.2,1.3-0.5
			c0.5-0.6,0.4-1.7,0.3-2.2c0-0.1,0-0.2,0-0.3c-0.2-3.2-0.7-14.8-1-17.4c-0.6-0.1-2-0.1-4.6-0.1c-1.9,0-3.6,0.1-4.4,0.2
			c-0.2,1.7,0.1,8,0.3,11.5C3,25.9,3,27,3.1,27.9c0,0.5-0.4,0.9-0.8,0.9c-0.5,0-0.9-0.4-0.9-0.8c0-0.9-0.1-2-0.2-3.4
			C1,22.1,0.8,19,0.8,16.6c-0.1-3.9,0-5,1-5.2c0.6-0.1,3.6-0.3,5.6-0.3c1,0,2.4,0,3.5,0c1.5,0.1,2.2,0.2,2.4,0.8
			c0.3,0.7,1,15.4,1.1,18.3c0,0,0,0.1,0,0.2c0.1,0.7,0.3,2.3-0.8,3.5C13,34.6,12.2,35,11.1,35c-0.7,0-1.5,0.1-2.3,0.2
			C6.4,35.4,4.8,35.5,3.7,35.5z"/>
	</g>
	<g>
		<path class="st0" d="M25.5,45.9c-0.9,0-2.1-0.4-3.7-1.8c-0.6-0.5-1.2-1-1.8-1.6c-5.9-5.1-6.7-6-6.9-6.6c-0.1-0.5,0.2-0.9,0.7-1
			c0.4-0.1,0.8,0.2,1,0.6c0.5,0.7,4.1,3.9,6.3,5.7c0.7,0.6,1.3,1.1,1.9,1.6c1.4,1.2,2.4,1.5,2.8,1.3c0.3-0.1,0.3-0.5,0.3-0.6V3.6
			c-0.9,0.8-2.3,2-3.5,3.1c-2.3,2.1-5.1,4.7-7.5,6.5c-0.4,0.3-0.9,0.2-1.2-0.2c-0.3-0.4-0.2-0.9,0.2-1.2c2.4-1.8,5.2-4.4,7.4-6.4
			c4.4-4,5.1-4.5,5.9-4.2c0.4,0.2,0.6,0.5,0.6,0.9v41.2c0,1-0.5,1.9-1.4,2.2C26.3,45.8,25.9,45.9,25.5,45.9z M14.9,35.6
			C14.9,35.6,14.9,35.6,14.9,35.6C14.9,35.6,14.9,35.6,14.9,35.6z"/>
	</g>
	<g>
		<path class="st1" d="M26.7,44.7c-0.9,0-2.1-0.4-3.7-1.8c-0.6-0.5-1.2-1-1.8-1.6c-5.9-5.1-6.7-6-6.9-6.6c-0.1-0.5,0.2-0.9,0.7-1
			c0.4-0.1,0.8,0.2,1,0.6c0.5,0.7,4.1,3.9,6.3,5.7c0.7,0.6,1.3,1.1,1.9,1.6c1.4,1.2,2.4,1.5,2.8,1.3c0.3-0.1,0.3-0.5,0.3-0.6V2.2
			c-1.6,1-4.8,3.6-7.3,5.6c-1.7,1.3-3.4,2.7-4.9,3.9c-0.4,0.3-0.9,0.2-1.2-0.2c-0.3-0.4-0.2-0.9,0.2-1.2c1.5-1.1,3.2-2.5,4.9-3.8
			c7.5-6,8.7-6.7,9.6-6.3c0.3,0.2,0.6,0.5,0.6,0.9v41.2c0,1-0.5,1.9-1.4,2.2C27.5,44.6,27.1,44.7,26.7,44.7z M16.1,34.4
			C16.1,34.4,16.1,34.4,16.1,34.4C16.1,34.4,16.1,34.4,16.1,34.4z"/>
	</g>
	<g>
		<path class="st0" d="M35.9,35.5c-0.2,0-0.3,0-0.5-0.1c-0.4-0.3-0.6-0.8-0.3-1.2c4.4-7.2,2.7-17.8,0.8-21.8c-0.2-0.4,0-1,0.4-1.2
			c0.4-0.2,1,0,1.2,0.4c1.8,3.9,4.1,15.3-0.9,23.5C36.4,35.3,36.2,35.5,35.9,35.5z"/>
	</g>
	<g>
		<path class="st1" d="M37.3,35.5c-0.2,0-0.3,0-0.5-0.1c-0.4-0.3-0.6-0.8-0.3-1.2c4.4-7.2,2.7-17.8,0.8-21.8c-0.2-0.4,0-1,0.4-1.2
			c0.4-0.2,1,0,1.2,0.4c1.8,3.9,4.1,15.3-0.9,23.5C37.9,35.3,37.6,35.5,37.3,35.5z"/>
	</g>
	<g>
		<path class="st0" d="M43.5,45.3c-0.2,0-0.3,0-0.5-0.1c-0.4-0.3-0.6-0.8-0.3-1.2c8.3-13.7,5.1-33.8,1.5-41.5c-0.2-0.4,0-1,0.4-1.2
			c0.4-0.2,1,0,1.2,0.4c1.6,3.4,3.5,10.4,3.9,18.8c0.2,6.6-0.5,16.2-5.5,24.3C44.1,45.1,43.8,45.3,43.5,45.3z"/>
	</g>
	<g>
		<path class="st1" d="M46.4,45.3c-0.2,0-0.3,0-0.5-0.1c-0.4-0.3-0.6-0.8-0.3-1.2c8.3-13.7,5.1-33.8,1.5-41.5c-0.2-0.4,0-1,0.4-1.2
			c0.4-0.2,1,0,1.2,0.4c1.6,3.4,3.5,10.4,3.9,18.8c0.2,6.6-0.5,16.2-5.5,24.3C47,45.1,46.7,45.3,46.4,45.3z"/>
	</g>
</g>
</svg>
